<mxfile host="app.diagrams.net" modified="2023-12-12T21:45:34.953Z" agent="Mozilla/5.0 (Windows NT 10.0; Win64; x64) AppleWebKit/537.36 (KHTML, like Gecko) Chrome/120.0.0.0 Safari/537.36 Edg/120.0.0.0" version="22.1.7" etag="ShNZaS42-Q3HkrUxFFat" type="github">
  <diagram name="Page-1" id="G5yyaY4O5lWfUy0sj8Ww">
    <mxGraphModel>
      <root>
        <mxCell id="0" />
        <mxCell id="1" parent="0" />
      </root>
    </mxGraphModel>
  </diagram>
</mxfile>
